<mxfile host="app.diagrams.net" agent="Mozilla/5.0 (Windows NT 10.0; Win64; x64) AppleWebKit/537.36 (KHTML, like Gecko) Chrome/129.0.0.0 Safari/537.36" version="24.7.16">
  <diagram name="Page-1" id="Qro0W-hVSI3CrljnnNCf">
    <mxGraphModel dx="1163" dy="589" grid="0" gridSize="10" guides="1" tooltips="1" connect="1" arrows="1" fold="1" page="1" pageScale="1" pageWidth="850" pageHeight="1100" math="0" shadow="0">
      <root>
        <mxCell id="0" />
        <mxCell id="1" parent="0" />
        <mxCell id="6hpVUTGiLnAb_UG3yvC5-3" value="" style="edgeStyle=orthogonalEdgeStyle;rounded=0;orthogonalLoop=1;jettySize=auto;html=1;curved=0;exitX=0;exitY=0.5;exitDx=0;exitDy=0;" edge="1" parent="1" source="6hpVUTGiLnAb_UG3yvC5-21" target="6hpVUTGiLnAb_UG3yvC5-2">
          <mxGeometry relative="1" as="geometry">
            <Array as="points">
              <mxPoint x="268" y="311" />
            </Array>
          </mxGeometry>
        </mxCell>
        <mxCell id="6hpVUTGiLnAb_UG3yvC5-34" style="edgeStyle=orthogonalEdgeStyle;rounded=0;orthogonalLoop=1;jettySize=auto;html=1;exitX=0.75;exitY=1;exitDx=0;exitDy=0;entryX=0;entryY=0.25;entryDx=0;entryDy=0;" edge="1" parent="1" source="6hpVUTGiLnAb_UG3yvC5-2" target="6hpVUTGiLnAb_UG3yvC5-21">
          <mxGeometry relative="1" as="geometry" />
        </mxCell>
        <mxCell id="6hpVUTGiLnAb_UG3yvC5-2" value="S3" style="whiteSpace=wrap;html=1;aspect=fixed;rounded=1;fillColor=#60a917;strokeColor=#2D7600;fontColor=#ffffff;" vertex="1" parent="1">
          <mxGeometry x="245" y="93" width="80" height="80" as="geometry" />
        </mxCell>
        <mxCell id="6hpVUTGiLnAb_UG3yvC5-27" style="edgeStyle=orthogonalEdgeStyle;rounded=0;orthogonalLoop=1;jettySize=auto;html=1;entryX=1;entryY=0.5;entryDx=0;entryDy=0;" edge="1" parent="1" source="6hpVUTGiLnAb_UG3yvC5-5" target="6hpVUTGiLnAb_UG3yvC5-25">
          <mxGeometry relative="1" as="geometry" />
        </mxCell>
        <mxCell id="6hpVUTGiLnAb_UG3yvC5-5" value="Client" style="whiteSpace=wrap;html=1;aspect=fixed;rounded=1;fillColor=#a20025;strokeColor=#6F0000;fontColor=#ffffff;" vertex="1" parent="1">
          <mxGeometry x="385" y="550" width="80" height="80" as="geometry" />
        </mxCell>
        <mxCell id="6hpVUTGiLnAb_UG3yvC5-26" value="" style="edgeStyle=orthogonalEdgeStyle;rounded=0;orthogonalLoop=1;jettySize=auto;html=1;entryX=1;entryY=0.5;entryDx=0;entryDy=0;exitX=1;exitY=0.5;exitDx=0;exitDy=0;" edge="1" parent="1" source="6hpVUTGiLnAb_UG3yvC5-7" target="6hpVUTGiLnAb_UG3yvC5-5">
          <mxGeometry relative="1" as="geometry" />
        </mxCell>
        <mxCell id="6hpVUTGiLnAb_UG3yvC5-7" value="Store" style="whiteSpace=wrap;html=1;aspect=fixed;rounded=1;fillColor=#d80073;strokeColor=#A50040;direction=south;arcSize=14;fontColor=#ffffff;" vertex="1" parent="1">
          <mxGeometry x="534" y="470" width="80" height="80" as="geometry" />
        </mxCell>
        <mxCell id="6hpVUTGiLnAb_UG3yvC5-36" style="edgeStyle=orthogonalEdgeStyle;rounded=0;orthogonalLoop=1;jettySize=auto;html=1;exitX=1;exitY=0.25;exitDx=0;exitDy=0;entryX=0.75;entryY=0;entryDx=0;entryDy=0;" edge="1" parent="1" source="6hpVUTGiLnAb_UG3yvC5-18" target="6hpVUTGiLnAb_UG3yvC5-21">
          <mxGeometry relative="1" as="geometry" />
        </mxCell>
        <mxCell id="6hpVUTGiLnAb_UG3yvC5-18" value="MongoDB" style="whiteSpace=wrap;html=1;aspect=fixed;rounded=1;fillColor=#008a00;strokeColor=#005700;direction=south;arcSize=14;fontColor=#ffffff;" vertex="1" parent="1">
          <mxGeometry x="345" y="93" width="80" height="80" as="geometry" />
        </mxCell>
        <mxCell id="6hpVUTGiLnAb_UG3yvC5-32" style="edgeStyle=orthogonalEdgeStyle;rounded=0;orthogonalLoop=1;jettySize=auto;html=1;exitX=1;exitY=0.25;exitDx=0;exitDy=0;entryX=0;entryY=0.25;entryDx=0;entryDy=0;" edge="1" parent="1" source="6hpVUTGiLnAb_UG3yvC5-21" target="6hpVUTGiLnAb_UG3yvC5-25">
          <mxGeometry relative="1" as="geometry" />
        </mxCell>
        <mxCell id="6hpVUTGiLnAb_UG3yvC5-21" value="Flask" style="whiteSpace=wrap;html=1;aspect=fixed;rounded=1;fillColor=#0050ef;strokeColor=#001DBC;direction=south;arcSize=14;fontColor=#ffffff;" vertex="1" parent="1">
          <mxGeometry x="245" y="311" width="80" height="80" as="geometry" />
        </mxCell>
        <mxCell id="6hpVUTGiLnAb_UG3yvC5-28" style="edgeStyle=orthogonalEdgeStyle;rounded=0;orthogonalLoop=1;jettySize=auto;html=1;exitX=0.5;exitY=0;exitDx=0;exitDy=0;entryX=0.5;entryY=1;entryDx=0;entryDy=0;" edge="1" parent="1" source="6hpVUTGiLnAb_UG3yvC5-25" target="6hpVUTGiLnAb_UG3yvC5-7">
          <mxGeometry relative="1" as="geometry" />
        </mxCell>
        <mxCell id="6hpVUTGiLnAb_UG3yvC5-29" style="edgeStyle=orthogonalEdgeStyle;rounded=0;orthogonalLoop=1;jettySize=auto;html=1;exitX=0;exitY=0.5;exitDx=0;exitDy=0;" edge="1" parent="1" source="6hpVUTGiLnAb_UG3yvC5-25" target="6hpVUTGiLnAb_UG3yvC5-21">
          <mxGeometry relative="1" as="geometry">
            <Array as="points">
              <mxPoint x="266" y="470" />
            </Array>
          </mxGeometry>
        </mxCell>
        <mxCell id="6hpVUTGiLnAb_UG3yvC5-25" value="Action" style="whiteSpace=wrap;html=1;aspect=fixed;rounded=1;fillColor=#d80073;strokeColor=#A50040;direction=south;arcSize=14;fontColor=#ffffff;" vertex="1" parent="1">
          <mxGeometry x="245" y="470" width="80" height="80" as="geometry" />
        </mxCell>
        <mxCell id="6hpVUTGiLnAb_UG3yvC5-35" style="edgeStyle=orthogonalEdgeStyle;rounded=0;orthogonalLoop=1;jettySize=auto;html=1;exitX=0.25;exitY=0;exitDx=0;exitDy=0;entryX=0.996;entryY=0.658;entryDx=0;entryDy=0;entryPerimeter=0;" edge="1" parent="1" source="6hpVUTGiLnAb_UG3yvC5-21" target="6hpVUTGiLnAb_UG3yvC5-18">
          <mxGeometry relative="1" as="geometry" />
        </mxCell>
      </root>
    </mxGraphModel>
  </diagram>
</mxfile>
